<svg xmlns="http://www.w3.org/2000/svg" viewBox="0 0 512 256" width="512" height="256">
  <defs>
    <linearGradient id="ocean" x1="0" y1="0" x2="1" y2="1">
      <stop offset="0%" stop-color="#0a2448"/>
      <stop offset="46%" stop-color="#123c6f"/>
      <stop offset="100%" stop-color="#1b568e"/>
    </linearGradient>
    <radialGradient id="glow" cx="50%" cy="40%" r="58%">
      <stop offset="0%" stop-color="#c5dfff" stop-opacity="0.66"/>
      <stop offset="42%" stop-color="#c5dfff" stop-opacity="0.18"/>
      <stop offset="100%" stop-color="#c5dfff" stop-opacity="0"/>
    </radialGradient>
    <pattern id="grid" width="32" height="32" patternUnits="userSpaceOnUse">
      <path d="M32 0H0V32" fill="none" stroke="#a9d0ff" stroke-opacity="0.14" stroke-width="1"/>
    </pattern>
  </defs>

  <rect width="512" height="256" fill="url(#ocean)"/>
  <rect width="512" height="256" fill="url(#glow)" opacity="0.9"/>

  <g fill="#90b7e3" opacity="0.18">
    <path d="M54 92c44-34 94-36 138-10 24 14 38 34 31 52-8 20-34 18-56 28-22 10-28 28-50 38-28 12-66 1-84-24-18-25-10-58 21-84z"/>
    <path d="M194 56c32-18 76-18 104 1 18 12 24 32 10 48-14 16-44 23-70 19-26-4-54-21-58-41-4-13 2-21 14-27z"/>
    <path d="M314 110c36-28 82-36 124-22 27 9 54 29 48 50-6 22-39 22-68 30-29 8-48 22-73 33-28 12-61 7-77-12-17-19-7-48 46-79z"/>
    <path d="M349 37c21-14 51-18 72-9 17 7 23 22 16 36-10 18-38 26-65 21-24-4-42-18-40-31 1-6 7-12 17-17z"/>
    <path d="M116 176c18-10 43-12 61-5 16 6 26 20 20 33-8 17-35 25-60 20-23-5-41-22-36-35 3-6 8-10 15-13z"/>
    <path d="M255 188c23-14 56-18 81-9 19 7 29 24 20 38-12 19-45 28-78 22-29-5-51-22-46-36 2-7 10-11 23-15z"/>
  </g>

  <ellipse cx="256" cy="128" rx="218" ry="104" fill="url(#grid)" opacity="0.78"/>
  <ellipse cx="256" cy="128" rx="176" ry="84" fill="none" stroke="#d7e8ff" stroke-opacity="0.18" stroke-width="1.6"/>
  <ellipse cx="256" cy="128" rx="122" ry="58" fill="none" stroke="#d7e8ff" stroke-opacity="0.14" stroke-width="1.4"/>
  <ellipse cx="256" cy="128" rx="228" ry="108" fill="none" stroke="#d4e7ff" stroke-opacity="0.26" stroke-width="2.2"/>
</svg>
