<svg xmlns="http://www.w3.org/2000/svg" viewBox="0 0 512 256" width="512" height="256">
  <rect width="512" height="256" fill="#2b6cb0"/>
  <g fill="#4caf50" opacity="0.95">
    <path d="M60 90c40-35 95-30 135 5 15 12 30 28 20 44-8 13-35 10-52 18-20 9-24 28-42 35-25 10-60-5-74-30-10-18-6-49 13-72z"/>
    <path d="M210 60c25-20 60-15 80 5 18 18 10 42-12 55-18 11-45 12-62 2-20-13-22-44-6-62z"/>
    <path d="M320 120c30-28 70-36 110-22 20 7 50 30 35 52-12 18-52 12-76 18-24 6-40 20-62 30-24 11-55-2-66-24-10-20 16-40 59-54z"/>
    <path d="M360 40c20-16 52-18 72-3 16 12 10 30-8 42-20 12-52 10-68-6-12-12-10-24 4-33z"/>
    <path d="M100 170c18-10 45-8 60 6 16 15 6 32-12 40-20 10-48 6-60-10-10-12-4-28 12-36z"/>
    <path d="M260 190c20-14 50-16 70-4 16 10 12 28-6 38-20 12-52 12-70-2-12-10-10-24 6-32z"/>
  </g>
  <g fill="none" stroke="#9dd1ff" stroke-width="2" opacity="0.35">
    <circle cx="256" cy="128" r="110"/>
  </g>
</svg>
